<svg xmlns="http://www.w3.org/2000/svg" viewBox="0 0 62.14 50"><defs><style>.cls-1{opacity:0.5;}.cls-2{fill:#e63947;}</style></defs><title>ice-cone</title><g id="Layer_2" data-name="Layer 2"><g id="Layer_1-2" data-name="Layer 1"><g class="cls-1"><path class="cls-2" d="M32.11,49.93h0a1,1,0,0,1-.61-1l3.76-32.86a1,1,0,0,1,.55-.78,1,1,0,0,1,.95.06,47,47,0,0,0,15.82,6.31,1,1,0,0,1,.72.61,1,1,0,0,1-.13.94L33.26,49.61A1,1,0,0,1,32.11,49.93ZM37,17.8,33.86,45.54,50.67,23.23A48.7,48.7,0,0,1,37,17.8Z"/><rect class="cls-2" x="29.71" y="7.98" width="14.7" height="1.97" transform="translate(23.79 44.71) rotate(-83.24)"/><rect class="cls-2" x="49.52" y="15.91" width="14.25" height="1.97" transform="translate(9.23 52.18) rotate(-53.26)"/><path class="cls-2" d="M48.11,9.81A43.44,43.44,0,0,1,40,5.68C37.51,4,36.52,2.52,37,1.3S39.2-.27,42.21.21a43.17,43.17,0,0,1,8.71,2.56A43.44,43.44,0,0,1,59,6.9c2.52,1.73,3.5,3.16,3,4.37s-2.19,1.58-5.2,1.1A43,43,0,0,1,48.11,9.81ZM38.93,2.07a8.64,8.64,0,0,0,2.68,2.3A43,43,0,0,0,48.84,8a42.27,42.27,0,0,0,7.72,2.35,8.68,8.68,0,0,0,3.54.18,8.61,8.61,0,0,0-2.69-2.3,42.86,42.86,0,0,0-7.22-3.62,44,44,0,0,0-7.73-2.35A8.53,8.53,0,0,0,38.93,2.07Z"/><ellipse class="cls-2" cx="49.51" cy="6.29" rx="0.84" ry="3.74" transform="translate(25.33 49.95) rotate(-68.26)"/><path class="cls-2" d="M49.28,17.42a5.71,5.71,0,0,1-2.87-2.8,9.62,9.62,0,0,0-.8-1.2c-.43-.51-1.08-.51-2.29-.46A8.54,8.54,0,0,1,40,12.61l-.14,0c-2.76-1.1-3.52-4.86-3.55-5l1.93-.37c.16.81.91,3.05,2.42,3.59a6.84,6.84,0,0,0,2.62.23c1.31-.05,2.8-.11,3.87,1.17a11.29,11.29,0,0,1,1,1.46c.71,1.2,1.23,2.06,3.09,2.25a5.61,5.61,0,0,0,3-.58,4,4,0,0,1,3.54-.21l-.83,1.79c-.63-.3-1-.15-1.95.24a7.48,7.48,0,0,1-4,.71A5.8,5.8,0,0,1,49.28,17.42Z"/><path class="cls-2" d="M30,49.93h0a1,1,0,0,1-1.15-.32L9,23.18a1,1,0,0,1-.13-.94,1,1,0,0,1,.73-.61,47.26,47.26,0,0,0,15.82-6.31,1,1,0,0,1,1.5.72l3.73,32.87A1,1,0,0,1,30,49.93ZM11.49,23.22,28.28,45.54,25.13,17.79A48.94,48.94,0,0,1,11.49,23.22Z"/><rect class="cls-2" x="4.44" y="9.45" width="1.97" height="14.7" transform="translate(-8.97 6.58) rotate(-36.72)"/><rect class="cls-2" x="24.11" y="1.95" width="1.97" height="14.25" transform="translate(-0.89 3.01) rotate(-6.74)"/><path class="cls-2" d="M14,9.81a43.17,43.17,0,0,1-8.71,2.56c-3,.48-4.71.12-5.2-1.09s.5-2.65,3-4.38a43.44,43.44,0,0,1,8.08-4.13A43,43,0,0,1,19.93.21c3-.48,4.71-.13,5.2,1.09s-.5,2.65-3,4.38A43.44,43.44,0,0,1,14,9.81Zm-12,.7a8.64,8.64,0,0,0,3.53-.18A42.35,42.35,0,0,0,13.3,8a42.88,42.88,0,0,0,7.22-3.61,8.75,8.75,0,0,0,2.69-2.3,8.58,8.58,0,0,0-3.54.17A43.91,43.91,0,0,0,12,4.59,43.38,43.38,0,0,0,4.72,8.21,8.5,8.5,0,0,0,2,10.51Z"/><ellipse class="cls-2" cx="12.62" cy="6.29" rx="3.74" ry="0.84" transform="translate(-1.43 5.12) rotate(-21.74)"/><path class="cls-2" d="M20.11,14.53a5.75,5.75,0,0,1-4-.06,9.36,9.36,0,0,0-1.4-.32c-.66-.08-1.14.37-2,1.24a8.4,8.4,0,0,1-2.67,2.05l-.14.06c-2.76,1.1-5.89-1.1-6-1.2L5,14.7c.68.48,2.76,1.6,4.23.94A6.75,6.75,0,0,0,11.31,14c.92-.95,2-2,3.61-1.82a10.85,10.85,0,0,1,1.72.38c1.34.38,2.31.65,3.79-.49a5.62,5.62,0,0,0,1.79-2.5A4,4,0,0,1,24.65,7l.62,1.86c-.66.22-.84.61-1.25,1.52a7.49,7.49,0,0,1-2.38,3.25A6.15,6.15,0,0,1,20.11,14.53Z"/></g></g></g></svg>