<svg xmlns="http://www.w3.org/2000/svg" viewBox="0 0 28.19 50"><defs><style>.cls-1{opacity:0.5;}.cls-2{fill:#e63947;}</style></defs><title>milkshake</title><g id="Layer_2" data-name="Layer 2"><g id="Layer_1-2" data-name="Layer 1"><g class="cls-1"><path class="cls-2" d="M18.17,38.57H10a1,1,0,0,1-1-.78c-.47-2.13-1.53-3.46-3.47-5.88-.66-.83-1.41-1.76-2.25-2.88C-.15,24.41,0,20.62,0,20.46a1,1,0,0,1,1-.95H27.19a1,1,0,0,1,1,.95c0,.16.15,3.95-3.32,8.57-.84,1.12-1.59,2-2.25,2.88-1.94,2.42-3,3.75-3.47,5.88A1,1,0,0,1,18.17,38.57Zm-7.38-2H17.4c.65-2.15,1.88-3.69,3.66-5.91.65-.82,1.39-1.74,2.21-2.83a14.24,14.24,0,0,0,2.84-6.32h-24a14.29,14.29,0,0,0,2.84,6.32c.82,1.09,1.56,2,2.22,2.83C8.91,32.88,10.14,34.42,10.79,36.57Z"/><path class="cls-2" d="M14.1,45.62A5.3,5.3,0,0,1,9,40.14V37.57h2v2.57a3.3,3.3,0,0,0,3.08,3.48,3.3,3.3,0,0,0,3.07-3.48V37.57h2v2.57A5.3,5.3,0,0,1,14.1,45.62Z"/><path class="cls-2" d="M14.12,50a25.57,25.57,0,0,1-7.79-1.08c-3.12-1-3.78-2.45-3.78-3.44,0-2.9,5.12-3.93,7.32-4.24l.28,2c-4,.56-5.6,1.74-5.6,2.26,0,.75,3.26,2.52,9.57,2.52s9.57-1.77,9.57-2.52C23.69,45,22,43.74,18,43.2l.27-2c4.67.63,7.46,2.22,7.46,4.26,0,1-.65,2.4-3.78,3.44A25.52,25.52,0,0,1,14.12,50Z"/><path class="cls-2" d="M26.53,19.83h-2A10.46,10.46,0,0,0,17.63,10l.67-1.88A12.47,12.47,0,0,1,26.53,19.83Z"/><path class="cls-2" d="M3.66,19.83h-2A12.43,12.43,0,0,1,10.08,8.06l.64,1.9A10.43,10.43,0,0,0,3.66,19.83Z"/><path class="cls-2" d="M14.1,13.15A4.75,4.75,0,1,1,18.84,8.4,4.75,4.75,0,0,1,14.1,13.15Zm0-7.49A2.75,2.75,0,1,0,16.84,8.4,2.75,2.75,0,0,0,14.1,5.66Z"/><path class="cls-2" d="M14.12,8.15a1,1,0,0,1-.71-1.7h0S16.28,3.5,16.86.79a1,1,0,0,1,2,.42c-.7,3.28-3.85,6.51-4,6.64A1,1,0,0,1,14.12,8.15Z"/></g></g></g></svg>