<svg xmlns="http://www.w3.org/2000/svg" viewBox="0 0 71.3 50"><defs><style>.cls-1{opacity:0.5;}.cls-2{fill:#e63947;}</style></defs><title>icycles</title><g id="Layer_2" data-name="Layer 2"><g id="Layer_1-2" data-name="Layer 1"><g class="cls-1"><path class="cls-2" d="M35.65,47a3.17,3.17,0,0,1-3.17-3.17V30.76a.82.82,0,0,1,.82-.82H38a.82.82,0,0,1,.82.82V43.84A3.17,3.17,0,0,1,35.65,47ZM34.12,31.58V43.84a1.53,1.53,0,0,0,3.05,0V31.58Z"/><path class="cls-2" d="M43.75,31.58H27.55a.82.82,0,0,1-.83-.82V8.92a8.93,8.93,0,0,1,17.85,0V30.76A.82.82,0,0,1,43.75,31.58ZM28.37,29.94H42.93v-21a7.28,7.28,0,0,0-14.56,0Z"/><rect class="cls-2" x="31.44" y="11.57" width="1.64" height="12.8"/><rect class="cls-2" x="38.21" y="11.57" width="1.64" height="12.8"/><path class="cls-2" d="M45.17,45.53,50.53,33.6a.82.82,0,0,1,1.08-.41l4.29,1.93a.81.81,0,0,1,.41,1.08L51,48.13a3.17,3.17,0,0,1-5.78-2.6ZM51.69,35l-5,11.17a1.53,1.53,0,0,0,2.78,1.26l5-11.18Z"/><path class="cls-2" d="M45.28,31.25l8.95-19.92a8.92,8.92,0,0,1,16.28,7.31l-9,19.92a.83.83,0,0,1-1.09.42L45.69,32.33A.81.81,0,0,1,45.28,31.25ZM69,18a7.28,7.28,0,1,0-13.28-6L47.12,31.17l13.28,6Z"/><rect class="cls-2" x="55.35" y="23.8" width="12.8" height="1.64" transform="translate(13.98 70.85) rotate(-65.8)"/><rect class="cls-2" x="49.18" y="21.02" width="12.8" height="1.64" transform="matrix(0.41, -0.91, 0.91, 0.41, 12.87, 63.58)"/><path class="cls-2" d="M24.54,49.72a3.17,3.17,0,0,1-4.19-1.59L15,36.2a.8.8,0,0,1,.41-1.08l4.28-1.93a.83.83,0,0,1,1.09.41l5.36,11.93A3.18,3.18,0,0,1,24.54,49.72ZM16.82,36.28l5,11.18a1.53,1.53,0,0,0,2.78-1.26L19.61,35Z"/><path class="cls-2" d="M25.6,32.33,10.82,39a.82.82,0,0,1-1.08-.42l-9-19.92a8.92,8.92,0,0,1,16.28-7.31l9,19.92A.82.82,0,0,1,25.6,32.33ZM10.9,37.14l13.28-6L15.56,12A7.28,7.28,0,1,0,2.28,18Z"/><rect class="cls-2" x="8.72" y="18.22" width="1.64" height="12.8" transform="translate(-9.25 6.08) rotate(-24.2)"/><rect class="cls-2" x="14.9" y="15.44" width="1.64" height="12.8" transform="translate(-7.57 8.36) rotate(-24.2)"/></g></g></g></svg>