<svg xmlns="http://www.w3.org/2000/svg" viewBox="0 0 67.72 50"><defs><style>.cls-1{opacity:0.5;}.cls-2{fill:#e63947;}</style></defs><title>melon-cone</title><g id="Layer_2" data-name="Layer 2"><g id="Layer_1-2" data-name="Layer 1"><g class="cls-1"><path class="cls-2" d="M66.81,33.86a3.19,3.19,0,0,1-2.36.91,4.11,4.11,0,0,1-2.92-1.37L55.67,27a.92.92,0,0,1,0-1.27l3-3a.92.92,0,0,1,1.27,0l6.4,5.86a4.18,4.18,0,0,1,1.38,2.93A3.23,3.23,0,0,1,66.81,33.86ZM57.62,26.4l5.26,5.76a2.34,2.34,0,0,0,1.61.77,1.28,1.28,0,0,0,1.39-1.38,2.27,2.27,0,0,0-.78-1.61l-5.75-5.27Z"/><path class="cls-2" d="M58.48,25.54a47.15,47.15,0,0,1-5.56,4.84c-1.56,1.11-3.48,2.24-4.55,1.17a.69.69,0,0,1-.16-.22l-15-28.4A2,2,0,0,1,33.54.59,2,2,0,0,1,35.88.23l28.4,15a1.12,1.12,0,0,1,.22.16c1.07,1.07-.06,3-1.17,4.55A47.22,47.22,0,0,1,58.48,25.54Zm-8.83,4.59c.92-.2,3.71-2.07,7.54-5.89s5.68-6.62,5.89-7.54L35,1.86a.13.13,0,0,0-.19,0,.13.13,0,0,0,0,.18Z"/><path class="cls-2" d="M55.07,22.13A39,39,0,0,1,47.54,28l-.95-1.58A36.88,36.88,0,0,0,59.37,13.64l1.57.95A38.7,38.7,0,0,1,55.07,22.13Z"/><rect class="cls-2" x="44.37" y="17.01" width="1.31" height="1.84" transform="translate(0.51 37.09) rotate(-45)"/><rect class="cls-2" x="51.5" y="14.83" width="1.97" height="1.84" transform="translate(4.24 41.73) rotate(-45)"/><rect class="cls-2" x="43.76" y="9.54" width="1.7" height="1.84" transform="translate(5.67 34.61) rotate(-45)"/><path class="cls-2" d="M.91,33.86A3.23,3.23,0,0,1,0,31.51a4.14,4.14,0,0,1,1.38-2.93l6.4-5.86a.92.92,0,0,1,1.27,0l3,3a.92.92,0,0,1,0,1.27L6.19,33.4a4.11,4.11,0,0,1-2.92,1.37A3.19,3.19,0,0,1,.91,33.86Zm7.46-9.19L2.62,29.94a2.27,2.27,0,0,0-.78,1.61,1.34,1.34,0,0,0,.37,1,1.35,1.35,0,0,0,1,.37,2.34,2.34,0,0,0,1.61-.77L10.1,26.4Z"/><path class="cls-2" d="M9.24,25.54A47.22,47.22,0,0,1,4.39,20c-1.11-1.55-2.24-3.48-1.17-4.55a.89.89,0,0,1,.22-.16l28.4-15a2,2,0,0,1,2.34.36,2,2,0,0,1,.36,2.34l-15,28.4a.69.69,0,0,1-.16.22c-1.07,1.07-3-.06-4.55-1.17A47.15,47.15,0,0,1,9.24,25.54ZM4.64,16.7c.2.92,2.07,3.71,5.89,7.54s6.62,5.69,7.54,5.89L32.91,2.07a.13.13,0,0,0,0-.18.13.13,0,0,0-.19,0Z"/><path class="cls-2" d="M12.65,22.13a39.14,39.14,0,0,1-5.88-7.54l1.58-.95A36.88,36.88,0,0,0,21.13,26.42L20.18,28A39,39,0,0,1,12.65,22.13Z"/><rect class="cls-2" x="15.93" y="11.42" width="1.84" height="1.31" transform="translate(-3.6 15.45) rotate(-45)"/><rect class="cls-2" x="18.11" y="18.56" width="1.84" height="1.97" transform="translate(-8.24 19.18) rotate(-45)"/><rect class="cls-2" x="23.39" y="10.81" width="1.84" height="1.7" transform="translate(-1.12 20.61) rotate(-45)"/><path class="cls-2" d="M34,50a3.18,3.18,0,0,1-2.31-1,4.13,4.13,0,0,1-1.1-3L31,37.27a.93.93,0,0,1,.92-.88h4.21a.92.92,0,0,1,.92.88l.38,8.67a4.16,4.16,0,0,1-1.09,3A3.18,3.18,0,0,1,34,50ZM32.8,38.23,32.46,46a2.29,2.29,0,0,0,.59,1.69,1.32,1.32,0,0,0,1,.45,1.36,1.36,0,0,0,1-.45A2.29,2.29,0,0,0,35.6,46l-.35-7.79Z"/><path class="cls-2" d="M34,38.23a46.51,46.51,0,0,1-7.36-.51c-1.89-.31-4.05-.87-4.05-2.39a1.26,1.26,0,0,1,0-.27l9.46-30.7a2,2,0,0,1,3.82,0l9.45,30.7a.84.84,0,0,1,0,.27c0,1.52-2.16,2.08-4,2.39A46.6,46.6,0,0,1,34,38.23Zm-9.5-3c.79.51,4.09,1.16,9.5,1.16s8.7-.65,9.49-1.16L34.18,4.9a.15.15,0,0,0-.3,0Z"/><path class="cls-2" d="M34,33.41a38.77,38.77,0,0,1-9.48-1.18L25,30.45a36.84,36.84,0,0,0,18.07,0l.45,1.78A38.83,38.83,0,0,1,34,33.41Z"/><rect class="cls-2" x="29.23" y="22.41" width="1.31" height="1.84"/><rect class="cls-2" x="35.73" y="26.15" width="1.97" height="1.84"/><rect class="cls-2" x="34.03" y="16.84" width="1.7" height="1.84"/></g></g></g></svg>