<svg width="30" height="34" viewBox="0 0 30 34" fill="none" xmlns="http://www.w3.org/2000/svg">
<g clip-path="url(#clip0_48_199)">
<path d="M14.9129 9.36318C10.6806 9.36318 7.26674 12.7698 7.26674 16.9933C7.26674 21.2167 10.6806 24.6233 14.9129 24.6233C19.1453 24.6233 22.5591 21.2167 22.5591 16.9933C22.5591 12.7698 19.1453 9.36318 14.9129 9.36318ZM14.9129 21.9538C12.1779 21.9538 9.9419 19.7292 9.9419 16.9933C9.9419 14.2573 12.1712 12.0327 14.9129 12.0327C17.6546 12.0327 19.8839 14.2573 19.8839 16.9933C19.8839 19.7292 17.648 21.9538 14.9129 21.9538ZM24.6553 9.05107C24.6553 10.0405 23.8568 10.8308 22.8719 10.8308C21.8803 10.8308 21.0884 10.0339 21.0884 9.05107C21.0884 8.06826 21.887 7.27139 22.8719 7.27139C23.8568 7.27139 24.6553 8.06826 24.6553 9.05107ZM29.7195 10.8573C29.6064 8.47334 29.0607 6.36162 27.3105 4.62178C25.567 2.88193 23.4508 2.3374 21.0618 2.21787C18.5996 2.07842 11.2196 2.07842 8.75738 2.21787C6.37501 2.33076 4.25884 2.87529 2.50867 4.61514C0.758494 6.35498 0.219467 8.4667 0.0996837 10.8507C-0.0400638 13.3077 -0.0400638 20.6722 0.0996837 23.1292C0.212813 25.5132 0.758494 27.6249 2.50867 29.3647C4.25884 31.1046 6.36836 31.6491 8.75738 31.7687C11.2196 31.9081 18.5996 31.9081 21.0618 31.7687C23.4508 31.6558 25.567 31.1112 27.3105 29.3647C29.054 27.6249 29.5997 25.5132 29.7195 23.1292C29.8593 20.6722 29.8593 13.3144 29.7195 10.8573ZM26.5386 25.7655C26.0195 27.0671 25.0147 28.0698 23.7037 28.5944C21.7406 29.3714 17.0823 29.1921 14.9129 29.1921C12.7435 29.1921 8.0786 29.3647 6.12214 28.5944C4.81783 28.0765 3.81298 27.0737 3.28726 25.7655C2.50867 23.8065 2.68834 19.1581 2.68834 16.9933C2.68834 14.8284 2.51532 10.1733 3.28726 8.221C3.80632 6.91943 4.81117 5.9167 6.12214 5.39209C8.08526 4.61514 12.7435 4.79443 14.9129 4.79443C17.0823 4.79443 21.7472 4.62178 23.7037 5.39209C25.008 5.91006 26.0129 6.91279 26.5386 8.221C27.3172 10.18 27.1375 14.8284 27.1375 16.9933C27.1375 19.1581 27.3172 23.8132 26.5386 25.7655Z" fill="#F1FAEE"/>
</g>
<defs>
<clipPath id="clip0_48_199">
<rect width="29.8128" height="34" fill="white"/>
</clipPath>
</defs>
</svg>
