<svg width="71" height="75" viewBox="0 0 71 75" fill="none" xmlns="http://www.w3.org/2000/svg">
<path d="M5.29941 28.9206C3.8826 29.178 2.77711 29.0008 1.98294 28.3889C1.2081 27.7491 0.709132 26.8152 0.486048 25.5873C0.404536 25.1387 0.354155 24.66 0.334903 24.1512C0.311362 23.6188 0.332903 23.0661 0.399525 22.4929C0.49196 21.5248 0.681012 20.4172 0.96668 19.17C1.25235 17.9229 1.61852 16.6489 2.06519 15.3481C2.51187 14.0473 3.01864 12.8088 3.5855 11.6325C4.15237 10.4562 4.76536 9.46673 5.42449 8.66398C6.02135 7.92133 6.70513 7.32144 7.47583 6.86431C8.26585 6.37928 9.03868 6.06812 9.79431 5.93084C11.1639 5.68201 12.1878 5.8131 12.8661 6.32409C13.568 6.83078 14.0004 7.53279 14.1634 8.4301C14.2921 9.1385 14.2716 9.8984 14.1019 10.7098C13.9323 11.5212 13.6402 12.3304 13.2258 13.1375C12.8307 13.9167 12.3358 14.6164 11.7411 15.2367C11.1464 15.857 10.4723 16.3088 9.71882 16.592C9.62865 16.6328 9.51273 16.6661 9.37105 16.6918C9.20576 16.7218 9.11453 16.6896 9.09737 16.5952C9.0845 16.5243 9.11671 16.4331 9.19401 16.3215C9.26701 16.1863 9.34216 16.0629 9.41945 15.9512C9.57404 15.728 9.807 15.332 10.1183 14.7632C10.449 14.1665 10.7786 13.4968 11.1071 12.7541C11.4314 11.9878 11.6773 11.2601 11.8448 10.571C12.1068 9.59651 12.1799 8.79046 12.0641 8.1529C11.9439 7.49172 11.6596 7.20189 11.2109 7.2834C10.8803 7.34346 10.4724 7.6493 9.9872 8.20092C9.52131 8.72463 9.00493 9.57463 8.43807 10.7509C8.00863 11.6095 7.61138 12.511 7.24633 13.4555C6.9006 14.3721 6.60532 15.2307 6.3605 16.0313C6.11139 16.8084 5.92132 17.4405 5.79031 17.9278C5.53471 19.0719 5.33921 20.2783 5.2038 21.5469C5.0641 22.7919 5.07791 23.8749 5.24522 24.7958C5.37392 25.5042 5.60891 26.0592 5.95017 26.4606C6.28713 26.8385 6.7744 26.9695 7.41196 26.8537C8.07314 26.7336 8.70322 26.3752 9.30221 25.7785C9.89691 25.1582 10.4347 24.4262 10.9157 23.5827C11.416 22.7112 11.8529 21.8269 12.2266 20.9296C12.6195 20.0045 12.9309 19.1674 13.1607 18.4182C13.3303 18.4118 13.5707 18.3925 13.882 18.3603C14.2168 18.3239 14.4229 18.5182 14.5001 18.9432C14.543 19.1794 14.5279 19.4992 14.4549 19.9028C14.3776 20.2827 14.2176 20.8118 13.9749 21.4901C13.4467 22.8789 12.6329 24.1732 11.5337 25.3731C10.4344 26.5729 9.26549 27.4561 8.02681 28.0226C7.53306 28.2587 7.05434 28.4432 6.59065 28.5762C6.13125 28.7329 5.70084 28.8477 5.29941 28.9206Z" fill="white"/>
<path d="M21.2314 26.0627C19.7201 26.3372 18.4944 26.3038 17.5542 25.9624C16.614 25.6209 16.0152 24.7418 15.7578 23.325C15.5777 22.3332 15.5424 21.2663 15.652 20.1244C15.781 18.9545 16.0462 17.7964 16.4478 16.6502C16.8494 15.5039 17.3744 14.4328 18.0228 13.4369C18.6712 12.4409 19.4344 11.6071 20.3125 10.9353C21.1863 10.2399 22.1663 9.79353 23.2525 9.59618C23.9609 9.46748 24.6446 9.40425 25.3036 9.40648C25.9626 9.40872 26.5315 9.58589 27.0101 9.938C27.4845 10.2665 27.801 10.8676 27.9597 11.7413C28.1271 12.6622 28.0958 13.8997 27.8659 15.4539C27.636 17.008 27.2225 18.5589 26.6256 20.1065C26.6127 20.304 26.6234 20.4972 26.6577 20.6861C26.7049 20.9459 26.7993 21.197 26.9409 21.4396C27.1062 21.6779 27.3305 21.7713 27.6139 21.7198C27.9917 21.6512 28.3341 21.3207 28.6412 20.7282C28.9589 20.0607 29.2671 19.2729 29.5656 18.3649C29.8641 17.4569 30.0842 16.7217 30.226 16.1594C30.2475 16.0091 30.3409 15.9189 30.5062 15.8889C30.6714 15.8589 30.826 15.904 30.9698 16.0242C31.1372 16.1402 31.1791 16.3033 31.0953 16.5137C30.9708 16.9022 30.8129 17.4431 30.6218 18.1364C30.4263 18.8062 30.1858 19.4963 29.9002 20.2068C29.6146 20.9173 29.27 21.5043 28.8664 21.9679C28.5637 22.3157 28.2116 22.526 27.8102 22.5989C27.3379 22.6847 26.9644 22.6428 26.6896 22.4732C26.4106 22.2799 26.1616 21.9837 25.9427 21.5844C25.3716 22.737 24.6856 23.7276 23.8848 24.5561C23.084 25.3846 22.1995 25.8868 21.2314 26.0627ZM20.3589 25.0869C20.6186 25.0397 20.9106 24.633 21.2349 23.8667C21.5591 23.1004 21.8845 22.1387 22.2109 20.9817C22.5331 19.8011 22.8413 18.6109 23.1355 17.411C23.1956 17.2049 23.2869 16.8346 23.4094 16.3001C23.5275 15.742 23.6489 15.1345 23.7735 14.4777C23.8938 13.7972 23.9829 13.1468 24.041 12.5264C24.099 11.9061 24.0959 11.4188 24.0315 11.0646C23.9586 10.6631 23.804 10.4839 23.5679 10.5268C23.3554 10.5654 23.1224 10.8273 22.8691 11.3124C22.6114 11.7738 22.3419 12.3716 22.0606 13.1058C21.7793 13.8399 21.5184 14.6191 21.2779 15.4433C21.0373 16.2676 20.8355 17.0361 20.6722 17.7487C20.509 18.4614 20.3489 19.2588 20.1921 20.1411C20.0353 21.0233 19.9193 21.8616 19.844 22.6558C19.7881 23.4221 19.8009 24.0296 19.8824 24.4783C19.9639 24.9269 20.1228 25.1298 20.3589 25.0869Z" fill="white"/>
<path d="M35.5862 23.4547C34.075 23.7293 32.8492 23.6958 31.9091 23.3544C30.9689 23.0129 30.3701 22.1338 30.1127 20.717C29.9325 19.7252 29.8972 18.6584 30.0069 17.5164C30.1358 16.3465 30.4011 15.1884 30.8027 14.0422C31.2042 12.8959 31.7292 11.8248 32.3776 10.8289C33.0261 9.83294 33.7893 8.99908 34.6674 8.3273C35.5411 7.63191 36.5211 7.18554 37.6073 6.9882C38.3157 6.8595 38.9994 6.79626 39.6585 6.7985C40.3175 6.80073 40.8863 6.97791 41.365 7.33002C41.8393 7.65852 42.1559 8.25961 42.3146 9.13331C42.4819 10.0542 42.4506 11.2918 42.2207 12.8459C41.9908 14.4 41.5774 15.9509 40.9804 17.4985C40.9675 17.696 40.9782 17.8892 41.0125 18.0781C41.0597 18.3379 41.1542 18.589 41.2958 18.8316C41.4611 19.0699 41.6854 19.1633 41.9687 19.1119C42.3465 19.0432 42.689 18.7127 42.996 18.1203C43.3138 17.4527 43.622 16.6649 43.9205 15.7569C44.219 14.849 44.4391 14.1138 44.5808 13.5514C44.6023 13.4011 44.6957 13.311 44.861 13.2809C45.0263 13.2509 45.1809 13.296 45.3247 13.4162C45.4921 13.5322 45.5339 13.6953 45.4502 13.9057C45.3256 14.2942 45.1678 14.8351 44.9766 15.5285C44.7812 16.1982 44.5407 16.8883 44.2551 17.5988C43.9695 18.3093 43.6249 18.8963 43.2212 19.36C42.9185 19.7077 42.5665 19.918 42.165 19.9909C41.6928 20.0767 41.3192 20.0348 41.0445 19.8652C40.7655 19.672 40.5165 19.3757 40.2976 18.9764C39.7264 20.1291 39.0405 21.1196 38.2397 21.9481C37.4389 22.7766 36.5544 23.2788 35.5862 23.4547ZM34.7138 22.4789C34.9735 22.4317 35.2655 22.025 35.5897 21.2587C35.914 20.4924 36.2393 19.5307 36.5658 18.3738C36.8879 17.1932 37.1961 16.0029 37.4904 14.803C37.5505 14.5969 37.6418 14.2266 37.7642 13.6921C37.8824 13.134 38.0037 12.5265 38.1283 11.8697C38.2486 11.1892 38.3378 10.5388 38.3958 9.91845C38.4539 9.29808 38.4507 8.8108 38.3864 8.4566C38.3134 8.05517 38.1589 7.8759 37.9228 7.91881C37.7102 7.95742 37.4773 8.21927 37.2239 8.70438C36.9663 9.16587 36.6968 9.76366 36.4155 10.4978C36.1342 11.2319 35.8733 12.0111 35.6327 12.8353C35.3922 13.6596 35.1903 14.4281 35.0271 15.1407C34.8638 15.8534 34.7038 16.6508 34.547 17.5331C34.3902 18.4153 34.2741 19.2536 34.1989 20.0478C34.143 20.8141 34.1558 21.4216 34.2373 21.8703C34.3188 22.319 34.4776 22.5218 34.7138 22.4789Z" fill="white"/>
<path d="M48.9847 21.0205C48.0166 21.1964 47.2234 21.1941 46.6052 21.0137C46.0106 20.829 45.5341 20.4887 45.1757 19.9928C44.8409 19.4926 44.607 18.8765 44.474 18.1444C44.2466 16.8929 44.2726 15.4246 44.5519 13.7396C44.8548 12.0502 45.265 10.4146 45.7825 8.83256C45.9865 8.21007 46.2324 7.4824 46.5202 6.64954C46.8273 5.78879 47.1837 4.93126 47.5896 4.07696C48.019 3.21836 48.4914 2.46174 49.0066 1.80709C49.5412 1.12454 50.1284 0.664163 50.7681 0.425973C51.1567 0.282203 51.5399 0.175997 51.9177 0.107355C52.5316 -0.00418682 53.0028 -0.0288098 53.3313 0.0334865C53.913 0.147336 54.2231 0.310521 54.2617 0.523042C54.2875 0.664723 54.1823 0.757013 53.9462 0.799914C53.8517 0.817074 53.7326 0.899703 53.5887 1.0478C53.4406 1.17229 53.3085 1.31824 53.1926 1.48566C52.3424 2.71342 51.4781 4.46817 50.5998 6.74991C49.8848 8.58732 49.3307 10.3711 48.9376 12.1012C48.5403 13.8077 48.3286 15.5293 48.3026 17.2659C48.309 17.7038 48.3379 18.0645 48.3894 18.3478C48.4795 18.8437 48.6265 19.1829 48.8304 19.3654C49.0343 19.5479 49.2543 19.6177 49.4905 19.5748C49.9627 19.489 50.4565 19.1187 50.9718 18.4641C51.5107 17.8052 51.9111 17.1226 52.1731 16.4164C52.5446 15.6415 52.8527 14.8537 53.0975 14.0531C53.3617 13.2245 53.5764 12.5269 53.7418 11.9602C53.8062 11.7777 53.9211 11.6715 54.0864 11.6415C54.2281 11.6157 54.3708 11.663 54.5146 11.7832C54.6584 11.9034 54.7003 12.0666 54.6401 12.2726C54.4146 13.0454 54.1183 13.9652 53.751 15.032C53.4074 16.0945 52.9855 17.0615 52.4852 17.933C52.0236 18.7487 51.4911 19.443 50.8879 20.0161C50.3039 20.5613 49.6695 20.896 48.9847 21.0205Z" fill="white"/>
<path d="M27.9164 51.0541C26.5468 51.303 25.4371 51.1021 24.5871 50.4516C23.7328 49.7774 23.2006 48.8618 22.9904 47.7047C22.7887 46.5949 22.8876 45.3939 23.2871 44.1017C23.6822 42.7858 24.4112 41.4947 25.474 40.2284C26.5603 38.9577 28.0062 37.8535 29.8117 36.9156C29.0904 36.9735 28.3595 36.9112 27.6189 36.7286C26.874 36.5224 26.2183 36.2025 25.6516 35.7688C25.1043 35.3072 24.7684 34.734 24.644 34.0492C24.5497 33.5297 24.6066 32.9705 24.8149 32.3716C25.0297 31.674 25.443 31.0623 26.0548 30.5364C26.686 29.9827 27.4192 29.5202 28.2542 29.1489C29.1087 28.7498 29.9609 28.473 30.811 28.3185C32.2042 28.0654 33.3236 28.1182 34.1694 28.4768C35.0387 28.8311 35.5549 29.4569 35.7179 30.3542C35.838 31.0154 35.7563 31.7742 35.4729 32.6307C35.3183 33.1222 35.14 33.4839 34.9382 33.7157C34.7557 33.9196 34.57 34.0387 34.3811 34.073C33.9797 34.146 33.7339 33.9345 33.6438 33.4386C33.5924 33.1553 33.6278 32.8805 33.7502 32.6143C34.0938 31.8201 34.2312 31.2341 34.1626 30.8563C34.0983 30.5021 33.8417 30.3658 33.3931 30.4473C33.0625 30.5073 32.6879 30.6608 32.2693 30.9076C31.8506 31.1544 31.4578 31.4087 31.0907 31.6705C30.8331 31.8637 30.5336 32.162 30.1922 32.5656C29.8508 32.9691 29.5631 33.3994 29.3291 33.8566C29.1186 34.3095 29.0499 34.7367 29.1228 35.1381C29.1786 35.4451 29.3385 35.721 29.6025 35.9657C29.8858 36.1826 30.328 36.334 30.929 36.4199C31.3927 36.2869 31.9058 36.2913 32.4682 36.433C33.0306 36.5748 33.3354 36.7755 33.3825 37.0353C33.4169 37.2242 33.2891 37.3937 32.9993 37.544C32.1148 38.0461 31.3044 38.7544 30.568 39.6688C29.8273 40.5595 29.1982 41.5276 28.6807 42.5729C28.1632 43.6183 27.7874 44.6379 27.5533 45.6317C27.3149 46.6019 27.2558 47.4177 27.3759 48.0788C27.4574 48.5275 27.6301 48.8742 27.8941 49.1189C28.1818 49.3594 28.5735 49.4346 29.0694 49.3445C29.8486 49.2029 30.5721 48.7544 31.2398 47.9989C31.9032 47.2197 32.5055 46.3053 33.0466 45.2557C33.5834 44.1825 34.03 43.15 34.3865 42.1583C34.1418 42.154 33.9089 42.1475 33.6878 42.1389C33.4667 42.1303 33.2337 42.1238 32.989 42.1195L32.7411 42.1645C32.505 42.2074 32.2731 42.2739 32.0456 42.3641C32.2067 41.2371 32.4097 40.4075 32.6545 39.8751C32.8992 39.3428 33.2578 39.0337 33.73 38.9479C33.9426 38.9093 34.2957 38.9062 34.7894 38.9384C35.2831 38.9707 35.779 39.0148 36.277 39.0706C36.7986 39.1222 37.2054 39.1459 37.4973 39.1416C37.8129 39.1331 38.1166 39.1267 38.4086 39.1225C38.7199 39.0903 38.9936 39.0528 39.2297 39.0099C39.702 38.9241 39.9982 38.8093 40.1184 38.6654C40.2193 38.5495 40.2762 38.527 40.2891 38.5979C40.2977 38.6451 40.2869 38.7202 40.2569 38.8232C39.9691 39.9244 39.4538 40.7132 38.711 41.1897C37.9639 41.6425 37.1374 41.9268 36.2315 42.0426C36.225 42.678 36.0596 43.3789 35.7354 44.1452C35.4347 44.9072 35.0354 45.6628 34.5372 46.4119C34.0627 47.1567 33.5496 47.8231 32.9978 48.4112C32.1348 49.2998 31.2621 49.934 30.3798 50.3139C29.5168 50.6658 28.6957 50.9126 27.9164 51.0541Z" fill="white"/>
<path d="M8.89229 74.663C6.6254 75.0749 4.70206 74.8267 3.12227 73.9184C1.54247 73.0102 0.544505 71.4108 0.128368 69.1203C-0.0689757 68.0341 -0.0387829 66.9919 0.218946 65.9938C0.495999 64.9677 1.16047 64.2616 2.21237 63.8753C2.15866 64.251 2.17255 64.6631 2.25407 65.1118C2.38706 65.8438 2.63166 66.6531 2.98789 67.5397C3.36343 68.3984 3.71752 69.1391 4.05017 69.7616C4.55236 70.6461 5.14902 71.3793 5.84016 71.9611C6.55061 72.515 7.27075 72.9208 8.00057 73.1785C8.74971 73.4083 9.39584 73.4739 9.93895 73.3752C10.4584 73.2808 10.8438 73.0522 11.095 72.6895C11.3655 72.2988 11.4343 71.7375 11.3013 71.0055C11.134 70.0846 10.723 69.2323 10.0684 68.4487C9.4095 67.6415 8.65614 66.8514 7.80833 66.0785C6.96052 65.3056 6.14812 64.5263 5.37115 63.7405C4.76589 63.0943 4.22932 62.4234 3.76145 61.7278C3.28929 61.0087 2.98028 60.2476 2.83442 59.4448C2.60275 58.1697 2.69091 57.0438 3.0989 56.0671C3.5026 55.0668 4.13597 54.2566 4.99899 53.6363C5.88135 52.9881 6.91286 52.5568 8.09353 52.3423C8.63664 52.2436 9.24522 52.1697 9.91926 52.1204C10.5933 52.0711 11.247 52.1109 11.8802 52.2398L12.4501 52.3558C12.798 51.5852 13.2413 51.0046 13.7802 50.614C14.319 50.2233 14.8128 49.9873 15.2614 49.9058C15.6156 49.8414 15.9119 49.8608 16.1501 49.9639C16.4077 50.039 16.5558 50.1829 16.5944 50.3954C16.633 50.6079 16.5536 50.8419 16.3561 51.0973C15.5939 52.1383 15.0238 53.0956 14.6459 53.9693C14.2637 54.8193 13.9265 55.7831 13.6344 56.8606C13.3617 57.9103 13.28 58.9374 13.3893 59.9421C13.2562 60.015 13.166 60.0558 13.1188 60.0644C12.8591 60.1116 12.638 59.9688 12.4556 59.6361C12.2689 59.2797 12.124 58.8181 12.0211 58.2514C11.9009 57.5902 11.8409 56.8572 11.841 56.0522C11.8369 55.2236 11.8971 54.4809 12.0217 53.824C11.8542 53.7081 11.6439 53.6243 11.3906 53.5728C11.133 53.4976 10.8507 53.4879 10.5437 53.5437C9.97702 53.6466 9.49828 53.9653 9.10752 54.4998C8.71676 55.0343 8.42796 55.66 8.2411 56.3769C8.07357 57.066 8.04558 57.7175 8.15712 58.3314C8.30299 59.1343 8.62595 59.9049 9.12601 60.6434C9.64969 61.3777 10.2421 62.0872 10.9031 62.7721C11.5878 63.4526 12.2371 64.1396 12.8509 64.8331C13.409 65.4879 13.8425 66.1287 14.1515 66.7556C14.4799 67.3545 14.6955 67.9374 14.7985 68.5041C15.0731 70.0153 14.6661 71.3333 13.5776 72.458C12.5084 73.5548 10.9467 74.2898 8.89229 74.663Z" fill="white"/>
<path d="M19.693 72.0056C18.7721 72.1729 18.0755 72.0311 17.6033 71.5802C17.1547 71.1251 16.8639 70.5315 16.731 69.7995C16.5336 68.7133 16.5101 67.6443 16.6605 66.5924C16.8067 65.517 17.0118 64.4308 17.276 63.3339C17.5638 62.2328 17.814 61.1262 18.0267 60.0143C18.1169 59.4369 18.1878 58.8873 18.2394 58.3657C18.2867 57.8205 18.2825 57.3944 18.2267 57.0874C18.1838 56.8513 18.1184 56.6924 18.0304 56.6108L18.0111 56.5046C17.9896 56.3865 18.0637 56.3242 18.2333 56.3178C18.4307 56.3307 18.6164 56.3458 18.7903 56.363C18.9835 56.3523 19.181 56.3652 19.3828 56.4017C20.3595 56.5414 21.0603 56.8409 21.4853 57.3003C21.9296 57.7319 22.201 58.2192 22.2997 58.7623C22.3169 58.8568 22.3222 58.9534 22.3158 59.0521C22.3329 59.1466 22.3383 59.2432 22.3318 59.3419C22.3232 59.563 22.2491 60.0277 22.1095 60.7361C21.9656 61.4209 21.7948 62.1593 21.5972 62.9514C21.3781 63.8937 21.1451 64.8264 20.8981 65.7494C20.6468 66.6488 20.4481 67.6362 20.302 68.7116C20.2913 68.7868 20.2988 68.8952 20.3245 69.0369C20.3846 69.3675 20.5563 69.507 20.8396 69.4555C21.0994 69.4083 21.3259 69.2452 21.5191 68.9662C21.809 68.5476 22.1353 67.9273 22.4982 67.1052C22.8568 66.2595 23.2756 65.0735 23.7545 63.5473C24.068 62.5878 24.2903 61.7303 24.4214 60.9747C24.5717 60.1912 24.677 59.4281 24.7372 58.6854C24.748 58.3419 24.7491 58.0124 24.7406 57.6968C24.7277 57.3577 24.6999 57.07 24.657 56.8339C24.6055 56.5505 24.5357 56.368 24.4477 56.2865C24.3834 56.2006 24.3565 56.1201 24.3673 56.045C24.378 55.9698 24.4446 55.9333 24.5669 55.9355C25.1895 55.8712 25.8077 55.9174 26.4216 56.0742C27.0548 56.2031 27.599 56.4457 28.054 56.8021C28.509 57.1585 28.7945 57.6555 28.9103 58.2931C28.9532 58.5292 28.9628 58.7836 28.9392 59.0562C28.9155 59.3288 28.8436 59.8054 28.7233 60.4858C28.603 61.1663 28.4504 61.938 28.2657 62.8009C28.1046 63.6595 27.9532 64.5042 27.8114 65.3349C27.6696 66.1657 27.5793 66.8773 27.5406 67.4697C27.5341 67.5685 27.5255 67.6554 27.5148 67.7305C27.5234 67.7778 27.532 67.825 27.5405 67.8722C27.592 68.1556 27.7122 68.2801 27.9011 68.2458C28.0428 68.22 28.2242 68.0773 28.4454 67.8176C28.7395 67.4227 29.0873 66.7862 29.4889 65.9083C29.9097 65.0025 30.3596 63.7865 30.8385 62.2603C31.1972 61.1463 31.4399 60.0655 31.5667 59.0179C31.7171 57.9661 31.7236 57.0624 31.5863 56.3067C31.4319 55.4567 31.0917 54.8598 30.5659 54.5163C30.4542 54.439 30.3984 54.4004 30.3984 54.4004C30.3899 54.3532 30.5251 54.292 30.8042 54.2169C30.9222 54.1954 31.0403 54.174 31.1584 54.1525C31.2958 54.1032 31.4117 54.0699 31.5061 54.0528C32.7577 53.8254 33.7054 53.8728 34.3493 54.1948C35.0126 54.489 35.3957 54.9195 35.4987 55.4862C35.5201 55.6043 35.5244 55.762 35.5115 55.9595C35.4814 56.5992 35.3353 57.4063 35.0733 58.3809C34.8306 59.3275 34.5138 60.3364 34.123 61.4075C33.8459 62.1652 33.672 62.8188 33.6011 63.3683C33.5495 63.89 33.5644 64.3751 33.646 64.8238C33.809 65.7211 34.1384 66.1247 34.6343 66.0346C35.0357 65.9617 35.39 65.629 35.697 65.0365C36.0127 64.4913 36.3025 63.8045 36.5667 62.9759C36.8545 62.1431 37.0864 61.4057 37.2625 60.7639C37.3033 60.5857 37.4182 60.4795 37.6071 60.4452C37.7488 60.4194 37.8915 60.4667 38.0353 60.5869C38.1748 60.6835 38.2145 60.8349 38.1544 61.0409C38.0792 61.2985 37.9965 61.5819 37.9063 61.891C37.8355 62.1722 37.7431 62.4695 37.6293 62.7828C37.4704 63.2508 37.2771 63.7982 37.0495 64.4249C36.8219 65.0517 36.5127 65.6323 36.1219 66.1668C35.7505 66.6734 35.246 66.9845 34.6084 67.1004C34.0889 67.1948 33.6607 67.053 33.3237 66.6752C32.9867 66.2973 32.7711 65.8487 32.6767 65.3292C32.6595 65.2347 32.6424 65.1402 32.6252 65.0458C32.608 64.9513 32.6027 64.8547 32.6091 64.756C32.1496 65.7176 31.5968 66.6352 30.9505 67.5088C30.3236 68.3545 29.6494 69.0746 28.9281 69.6691C28.2261 70.2357 27.5091 70.5855 26.777 70.7185C25.927 70.873 25.2637 70.713 24.7872 70.2385C24.33 69.7361 24.0285 69.0835 23.8826 68.2807C23.844 68.0681 23.8172 67.8535 23.8022 67.6367C23.8066 67.3919 23.8012 67.1612 23.7862 66.9444C23.2022 68.2945 22.5816 69.444 21.9246 70.3927C21.2634 71.3178 20.5195 71.8554 19.693 72.0056Z" fill="white"/>
<path d="M42.827 68.1685C41.1032 68.4817 39.7809 68.3194 38.8601 67.6817C37.9629 67.0398 37.3984 66.0812 37.1668 64.8061C36.9909 63.838 36.9985 62.7389 37.1897 61.5089C37.3251 60.5086 37.5646 59.4772 37.9082 58.4146C38.2475 57.3285 38.6845 56.31 39.2191 55.3591C39.7495 54.3846 40.3828 53.5743 41.1192 52.9283C41.8513 52.2586 42.6778 51.8402 43.5987 51.6729C44.7794 51.4583 45.7701 51.4735 46.5707 51.7183C47.3907 51.9353 47.8758 52.4569 48.0259 53.2834C48.1375 53.8974 48.029 54.7098 47.7004 55.7209C47.2709 57.1161 46.4936 58.3428 45.3687 59.4009C44.2437 60.4591 42.9009 61.1909 41.3402 61.5964C41.1619 62.6289 41.0931 63.4586 41.1338 64.0854C41.1317 64.2077 41.1413 64.328 41.1628 64.446C41.1799 64.5405 41.1992 64.6467 41.2207 64.7648C41.3622 65.544 41.6423 66.0786 42.0609 66.3684C42.4751 66.6347 42.942 66.7206 43.4615 66.6262C44.4296 66.4503 45.2347 66.048 45.8766 65.4191C46.5185 64.7902 47.0424 64.0486 47.4482 63.1943C47.8777 62.3357 48.2245 61.4921 48.4886 60.6636C48.6475 60.1956 48.7775 59.7695 48.8784 59.3853C48.9751 58.9775 49.0556 58.6823 49.12 58.4999C49.2038 58.2895 49.3165 58.1715 49.4582 58.1457C49.5998 58.12 49.7447 58.179 49.8928 58.3229C50.0366 58.4431 50.0785 58.6062 50.0183 58.8123C49.8229 59.482 49.5459 60.3739 49.1872 61.488C48.8286 62.602 48.3777 63.6109 47.8345 64.5145C47.2418 65.5491 46.5494 66.3701 45.7573 66.9775C44.9844 67.557 44.0076 67.954 42.827 68.1685ZM41.6141 60.4856C42.6037 59.8911 43.4056 59.0014 44.0197 57.8166C44.6574 56.6274 45.0043 55.3813 45.0603 54.0783C45.0624 53.956 45.0549 53.8476 45.0378 53.7531C45.0442 53.6544 45.0389 53.5578 45.0217 53.4633C44.9359 52.9911 44.7513 52.7807 44.468 52.8321C44.2318 52.875 44.0139 53.0854 43.8142 53.4632C43.5179 53.9805 43.228 54.6673 42.9446 55.5238C42.6568 56.3567 42.4141 57.1691 42.2165 57.9612C42.0189 58.7533 41.8718 59.3532 41.7752 59.7611L41.6141 60.4856Z" fill="white"/>
<path d="M54.6567 66.0193C52.933 66.3324 51.6107 66.1702 50.6898 65.5325C49.7926 64.8906 49.2282 63.932 48.9965 62.6569C48.8207 61.6887 48.8283 60.5897 49.0195 59.3597C49.1549 58.3594 49.3944 57.3279 49.738 56.2654C50.0773 55.1793 50.5143 54.1607 51.0489 53.2099C51.5793 52.2354 52.2126 51.4251 52.949 50.7791C53.6811 50.1094 54.5076 49.6909 55.4285 49.5236C56.6092 49.3091 57.5999 49.3243 58.4005 49.5691C59.2205 49.786 59.7056 50.3077 59.8557 51.1342C59.9673 51.7481 59.8588 52.5606 59.5302 53.5716C59.1007 54.9669 58.3234 56.1936 57.1985 57.2517C56.0735 58.3098 54.7307 59.0417 53.17 59.4472C52.9917 60.4797 52.9229 61.3093 52.9636 61.9362C52.9614 62.0585 52.9711 62.1787 52.9925 62.2968C53.0097 62.3912 53.029 62.4975 53.0505 62.6156C53.192 63.3948 53.4721 63.9294 53.8906 64.2192C54.3049 64.4855 54.7718 64.5714 55.2913 64.477C56.2594 64.3011 57.0645 63.8987 57.7064 63.2698C58.3483 62.641 58.8722 61.8994 59.278 61.0451C59.7075 60.1865 60.0543 59.3429 60.3184 58.5143C60.4773 58.0464 60.6072 57.6203 60.7082 57.2361C60.8048 56.8282 60.8854 56.5331 60.9498 56.3506C61.0336 56.1403 61.1463 56.0222 61.2879 55.9965C61.4296 55.9707 61.5745 56.0298 61.7226 56.1736C61.8664 56.2939 61.9083 56.457 61.8481 56.6631C61.6527 57.3328 61.3757 58.2247 61.017 59.3387C60.6584 60.4528 60.2075 61.4617 59.6642 62.3653C59.0716 63.3999 58.3792 64.2209 57.5871 64.8283C56.8142 65.4078 55.8374 65.8048 54.6567 66.0193ZM53.4439 58.3363C54.4335 57.7418 55.2354 56.8522 55.8495 55.6673C56.4872 54.4782 56.8341 53.2321 56.8901 51.9291C56.8922 51.8068 56.8847 51.6984 56.8676 51.6039C56.874 51.5052 56.8687 51.4086 56.8515 51.3141C56.7657 50.8418 56.5811 50.6314 56.2978 50.6829C56.0616 50.7258 55.8437 50.9362 55.644 51.3139C55.3477 51.8312 55.0578 52.5181 54.7744 53.3746C54.4866 54.2074 54.2439 55.0199 54.0463 55.812C53.8487 56.6041 53.7016 57.204 53.605 57.6119L53.4439 58.3363Z" fill="white"/>
<path d="M64.6351 63.9503C63.785 64.1047 62.9746 64.008 62.204 63.6602C61.4292 63.2887 60.9431 62.5598 60.7457 61.4736C60.5913 60.6235 60.5678 59.5545 60.6753 58.2666C60.7828 56.9786 60.9923 55.6477 61.3037 54.2739C61.6109 52.8765 61.9889 51.6004 62.4377 50.4456L60.9146 50.7223C60.7729 50.748 60.6913 50.7019 60.6699 50.5838C60.6527 50.4893 60.6925 50.3723 60.7891 50.2328C60.8814 50.0697 61.0059 49.9495 61.1626 49.8722C61.519 49.6855 61.9645 49.3851 62.499 48.9708C63.0529 48.5287 63.6218 48.0351 64.2058 47.4899C64.7898 46.9447 65.3383 46.406 65.8514 45.8737C66.3645 45.3414 66.7703 44.8896 67.0687 44.5183C67.2469 44.2908 67.4477 44.1201 67.6709 44.0064C67.9178 43.8884 68.1593 43.8079 68.3954 43.765C68.7969 43.6921 69.1167 43.7071 69.355 43.8102C69.5932 43.9133 69.619 44.055 69.4322 44.2352C69.2647 44.3876 69.0586 44.73 68.8138 45.2623C68.569 45.7947 68.321 46.3764 68.0698 47.0074C67.8422 47.6342 67.6392 48.1955 67.461 48.6914L70.1529 48.2023C70.2002 48.1937 70.2302 48.2249 70.2431 48.2957C70.2645 48.4138 70.2452 48.5758 70.1851 48.7819C70.1206 48.9644 70.0412 49.0642 69.9467 49.0813L67.1485 49.5897C66.8264 50.502 66.4785 51.5409 66.1049 52.7065C65.7312 53.872 65.3854 55.0569 65.0676 56.2611C64.769 57.4374 64.5403 58.5279 64.3813 59.5325C64.218 60.5135 64.1857 61.2755 64.2844 61.8186C64.3916 62.409 64.7168 62.6548 65.2599 62.5561C65.8266 62.4532 66.4149 62.0658 67.0246 61.394C67.5248 60.7908 67.9682 60.0761 68.3547 59.2497C68.7262 58.4748 69.0343 57.687 69.2792 56.8864C69.5476 56.0814 69.7645 55.3956 69.9299 54.8289C69.9943 54.6465 70.1091 54.5402 70.2744 54.5102C70.4397 54.4802 70.5825 54.5274 70.7027 54.6519C70.8422 54.7485 70.8819 54.8999 70.8217 55.1059C70.5962 55.8787 70.2977 56.7867 69.9262 57.8299C69.5547 58.8731 69.1328 59.8401 68.6604 60.7309C68.2761 61.4349 67.8778 61.9951 67.4656 62.4115C67.0727 62.8 66.6315 63.1241 66.1421 63.3838C65.6805 63.6628 65.1782 63.8516 64.6351 63.9503Z" fill="white"/>
</svg>
