<svg width="26" height="34" viewBox="0 0 26 34" fill="none" xmlns="http://www.w3.org/2000/svg">
<g clip-path="url(#clip0_48_201)">
<path d="M13.5469 0.431641C6.73359 0.431641 0 4.97383 0 12.325C0 17 2.62969 19.6562 4.22344 19.6562C4.88086 19.6562 5.25937 17.8234 5.25937 17.3055C5.25937 16.6879 3.68555 15.373 3.68555 12.8031C3.68555 7.46406 7.74961 3.67891 13.009 3.67891C17.5312 3.67891 20.8781 6.24883 20.8781 10.9703C20.8781 14.4965 19.4637 21.1105 14.8816 21.1105C13.2281 21.1105 11.8137 19.9152 11.8137 18.202C11.8137 15.6918 13.5668 13.2613 13.5668 10.6715C13.5668 6.27539 7.33125 7.07227 7.33125 12.3848C7.33125 13.5004 7.4707 14.7355 7.96875 15.7516C7.05234 19.6961 5.17969 25.573 5.17969 29.6371C5.17969 30.8922 5.35898 32.1273 5.47852 33.3824C5.7043 33.6348 5.59141 33.6082 5.93672 33.482C9.28359 28.9 9.16406 28.0035 10.6781 22.007C11.4949 23.5609 13.6066 24.3977 15.2801 24.3977C22.3324 24.3977 25.5 17.5246 25.5 11.3289C25.5 4.73477 19.8023 0.431641 13.5469 0.431641Z" fill="#F1FAEE"/>
</g>
<defs>
<clipPath id="clip0_48_201">
<rect width="25.5" height="34" fill="white"/>
</clipPath>
</defs>
</svg>
