<svg width="30" height="34" viewBox="0 0 30 34" fill="none" xmlns="http://www.w3.org/2000/svg">
<g clip-path="url('#clip0_48_203')">
<path d="M29.7499 13.9393C26.8264 13.9463 23.9745 13.0346 21.5972 11.3329V23.201C21.5964 25.3991 20.9246 27.5446 19.6715 29.3506C18.4184 31.1565 16.6439 32.5369 14.5851 33.3071C12.5264 34.0773 10.2815 34.2006 8.1508 33.6605C6.02007 33.1205 4.105 31.9428 2.66166 30.2849C1.21832 28.6271 0.315504 26.5681 0.0739366 24.3833C-0.16763 22.1985 0.263564 19.9921 1.30986 18.0589C2.35616 16.1258 3.96769 14.5582 5.92897 13.5657C7.89025 12.5732 10.1078 12.2031 12.2851 12.505V18.4742C11.2887 18.1608 10.2189 18.1703 9.22822 18.5012C8.23758 18.8321 7.37683 19.4676 6.7689 20.3169C6.16097 21.1662 5.83694 22.1859 5.84309 23.2303C5.84924 24.2748 6.18526 25.2905 6.80315 26.1326C7.42105 26.9747 8.28922 27.6 9.2837 27.9192C10.2782 28.2385 11.3481 28.2353 12.3407 27.9102C13.3332 27.5851 14.1977 26.9547 14.8106 26.1089C15.4235 25.2632 15.7535 24.2455 15.7535 23.201V0H21.5972C21.5932 0.493491 21.6345 0.98631 21.7207 1.47223C21.9238 2.55696 22.346 3.58886 22.9616 4.50482C23.5771 5.42078 24.3731 6.20154 25.3007 6.79934C26.6205 7.67198 28.1678 8.13709 29.7499 8.13676V13.9393Z" fill="#F1FAEE"></path>
</g>
<defs>
<clipPath id="clip0_48_203">
<rect width="29.75" height="34" fill="white"></rect>
</clipPath>
</defs>
</svg>
